<mxfile host="app.diagrams.net" agent="Mozilla/5.0 (Windows NT 10.0; Win64; x64; rv:134.0) Gecko/20100101 Firefox/134.0" version="26.0.11">
  <diagram name="Page-1" id="Z51DuoFd0NA-fO_uwWRS">
    <mxGraphModel dx="2085" dy="624" grid="1" gridSize="10" guides="1" tooltips="1" connect="1" arrows="1" fold="1" page="1" pageScale="1" pageWidth="850" pageHeight="1100" math="0" shadow="0">
      <root>
        <mxCell id="0" />
        <mxCell id="1" parent="0" />
        <mxCell id="pBv2-ZJzbY1mfK_uoJlT-4" value="Deciding which one you want" style="rounded=1;whiteSpace=wrap;html=1;" vertex="1" parent="1">
          <mxGeometry x="365" y="220" width="120" height="60" as="geometry" />
        </mxCell>
        <mxCell id="pBv2-ZJzbY1mfK_uoJlT-27" style="edgeStyle=orthogonalEdgeStyle;rounded=0;orthogonalLoop=1;jettySize=auto;html=1;entryX=0.5;entryY=1;entryDx=0;entryDy=0;" edge="1" parent="1" source="pBv2-ZJzbY1mfK_uoJlT-5" target="pBv2-ZJzbY1mfK_uoJlT-15">
          <mxGeometry relative="1" as="geometry" />
        </mxCell>
        <mxCell id="pBv2-ZJzbY1mfK_uoJlT-5" value="Rethink your life choices (Wait 5 min)" style="shape=delay;whiteSpace=wrap;html=1;" vertex="1" parent="1">
          <mxGeometry x="530" y="317.5" width="100" height="55" as="geometry" />
        </mxCell>
        <mxCell id="pBv2-ZJzbY1mfK_uoJlT-10" style="edgeStyle=orthogonalEdgeStyle;rounded=0;orthogonalLoop=1;jettySize=auto;html=1;exitX=0.5;exitY=1;exitDx=0;exitDy=0;exitPerimeter=0;entryX=0.5;entryY=0;entryDx=0;entryDy=0;" edge="1" parent="1" source="pBv2-ZJzbY1mfK_uoJlT-6" target="pBv2-ZJzbY1mfK_uoJlT-7">
          <mxGeometry relative="1" as="geometry" />
        </mxCell>
        <mxCell id="pBv2-ZJzbY1mfK_uoJlT-6" value="&lt;div&gt;What do you want for breakfast today&lt;/div&gt;?" style="strokeWidth=2;html=1;shape=mxgraph.flowchart.terminator;whiteSpace=wrap;" vertex="1" parent="1">
          <mxGeometry x="370" y="40" width="110" height="70" as="geometry" />
        </mxCell>
        <mxCell id="pBv2-ZJzbY1mfK_uoJlT-23" style="edgeStyle=orthogonalEdgeStyle;rounded=0;orthogonalLoop=1;jettySize=auto;html=1;exitX=0.5;exitY=1;exitDx=0;exitDy=0;entryX=0.5;entryY=0;entryDx=0;entryDy=0;" edge="1" parent="1" source="pBv2-ZJzbY1mfK_uoJlT-7" target="pBv2-ZJzbY1mfK_uoJlT-4">
          <mxGeometry relative="1" as="geometry" />
        </mxCell>
        <mxCell id="pBv2-ZJzbY1mfK_uoJlT-7" value="&amp;nbsp; Record possible options" style="shape=parallelogram;html=1;strokeWidth=2;perimeter=parallelogramPerimeter;whiteSpace=wrap;rounded=1;arcSize=12;size=0.23;" vertex="1" parent="1">
          <mxGeometry x="361" y="130" width="128" height="60" as="geometry" />
        </mxCell>
        <mxCell id="pBv2-ZJzbY1mfK_uoJlT-26" style="edgeStyle=orthogonalEdgeStyle;rounded=0;orthogonalLoop=1;jettySize=auto;html=1;exitX=1;exitY=0.5;exitDx=0;exitDy=0;exitPerimeter=0;entryX=0;entryY=0.5;entryDx=0;entryDy=0;" edge="1" parent="1" source="pBv2-ZJzbY1mfK_uoJlT-8" target="pBv2-ZJzbY1mfK_uoJlT-5">
          <mxGeometry relative="1" as="geometry" />
        </mxCell>
        <mxCell id="pBv2-ZJzbY1mfK_uoJlT-8" value="&lt;div&gt;Do you&lt;/div&gt;&lt;div&gt;&amp;nbsp;want any&amp;nbsp;&lt;/div&gt;&lt;div&gt;of them?&lt;/div&gt;" style="strokeWidth=2;html=1;shape=mxgraph.flowchart.decision;whiteSpace=wrap;" vertex="1" parent="1">
          <mxGeometry x="375" y="295" width="100" height="100" as="geometry" />
        </mxCell>
        <mxCell id="pBv2-ZJzbY1mfK_uoJlT-9" value="Yay! Now you have breakfast ^-^" style="strokeWidth=2;html=1;shape=mxgraph.flowchart.terminator;whiteSpace=wrap;" vertex="1" parent="1">
          <mxGeometry x="375" y="650" width="100" height="60" as="geometry" />
        </mxCell>
        <mxCell id="pBv2-ZJzbY1mfK_uoJlT-12" value="No" style="text;html=1;align=center;verticalAlign=middle;whiteSpace=wrap;rounded=0;" vertex="1" parent="1">
          <mxGeometry x="470" y="310" width="60" height="30" as="geometry" />
        </mxCell>
        <mxCell id="pBv2-ZJzbY1mfK_uoJlT-28" style="edgeStyle=orthogonalEdgeStyle;rounded=0;orthogonalLoop=1;jettySize=auto;html=1;exitX=0;exitY=0.5;exitDx=0;exitDy=0;entryX=1;entryY=0.5;entryDx=0;entryDy=0;" edge="1" parent="1" source="pBv2-ZJzbY1mfK_uoJlT-15" target="pBv2-ZJzbY1mfK_uoJlT-4">
          <mxGeometry relative="1" as="geometry" />
        </mxCell>
        <mxCell id="pBv2-ZJzbY1mfK_uoJlT-15" value="Yes you do, now pick one &amp;gt;:(" style="rounded=1;whiteSpace=wrap;html=1;" vertex="1" parent="1">
          <mxGeometry x="520" y="220" width="120" height="60" as="geometry" />
        </mxCell>
        <mxCell id="pBv2-ZJzbY1mfK_uoJlT-19" value="You most likely want cereal" style="rounded=1;whiteSpace=wrap;html=1;" vertex="1" parent="1">
          <mxGeometry x="-62" y="315" width="120" height="60" as="geometry" />
        </mxCell>
        <mxCell id="pBv2-ZJzbY1mfK_uoJlT-48" style="edgeStyle=orthogonalEdgeStyle;rounded=0;orthogonalLoop=1;jettySize=auto;html=1;" edge="1" parent="1" source="pBv2-ZJzbY1mfK_uoJlT-20" target="pBv2-ZJzbY1mfK_uoJlT-9">
          <mxGeometry relative="1" as="geometry" />
        </mxCell>
        <mxCell id="pBv2-ZJzbY1mfK_uoJlT-20" value="You most likely want PBJ" style="rounded=1;whiteSpace=wrap;html=1;" vertex="1" parent="1">
          <mxGeometry x="365" y="439" width="120" height="60" as="geometry" />
        </mxCell>
        <mxCell id="pBv2-ZJzbY1mfK_uoJlT-21" value="You most likely want something else" style="rounded=1;whiteSpace=wrap;html=1;" vertex="1" parent="1">
          <mxGeometry x="230" y="560" width="120" height="60" as="geometry" />
        </mxCell>
        <mxCell id="pBv2-ZJzbY1mfK_uoJlT-38" style="edgeStyle=orthogonalEdgeStyle;rounded=0;orthogonalLoop=1;jettySize=auto;html=1;exitX=0.5;exitY=1;exitDx=0;exitDy=0;entryX=0;entryY=0.5;entryDx=0;entryDy=0;entryPerimeter=0;" edge="1" parent="1" source="pBv2-ZJzbY1mfK_uoJlT-22" target="pBv2-ZJzbY1mfK_uoJlT-9">
          <mxGeometry relative="1" as="geometry">
            <mxPoint x="290" y="680" as="targetPoint" />
            <Array as="points">
              <mxPoint x="148" y="680" />
            </Array>
          </mxGeometry>
        </mxCell>
        <mxCell id="pBv2-ZJzbY1mfK_uoJlT-22" value="You most likely want oatmeal" style="rounded=1;whiteSpace=wrap;html=1;" vertex="1" parent="1">
          <mxGeometry x="88" y="439" width="120" height="60" as="geometry" />
        </mxCell>
        <mxCell id="pBv2-ZJzbY1mfK_uoJlT-24" style="edgeStyle=orthogonalEdgeStyle;rounded=0;orthogonalLoop=1;jettySize=auto;html=1;exitX=0.5;exitY=1;exitDx=0;exitDy=0;entryX=0.5;entryY=0;entryDx=0;entryDy=0;entryPerimeter=0;" edge="1" parent="1" source="pBv2-ZJzbY1mfK_uoJlT-4" target="pBv2-ZJzbY1mfK_uoJlT-8">
          <mxGeometry relative="1" as="geometry" />
        </mxCell>
        <mxCell id="pBv2-ZJzbY1mfK_uoJlT-29" value="Do you want grains?" style="strokeWidth=2;html=1;shape=mxgraph.flowchart.decision;whiteSpace=wrap;" vertex="1" parent="1">
          <mxGeometry x="240" y="295" width="100" height="100" as="geometry" />
        </mxCell>
        <mxCell id="pBv2-ZJzbY1mfK_uoJlT-33" style="edgeStyle=orthogonalEdgeStyle;rounded=0;orthogonalLoop=1;jettySize=auto;html=1;exitX=0.5;exitY=1;exitDx=0;exitDy=0;exitPerimeter=0;entryX=0.5;entryY=0;entryDx=0;entryDy=0;" edge="1" parent="1" source="pBv2-ZJzbY1mfK_uoJlT-30" target="pBv2-ZJzbY1mfK_uoJlT-22">
          <mxGeometry relative="1" as="geometry" />
        </mxCell>
        <mxCell id="pBv2-ZJzbY1mfK_uoJlT-34" style="edgeStyle=orthogonalEdgeStyle;rounded=0;orthogonalLoop=1;jettySize=auto;html=1;exitX=0;exitY=0.5;exitDx=0;exitDy=0;exitPerimeter=0;entryX=1;entryY=0.5;entryDx=0;entryDy=0;" edge="1" parent="1" source="pBv2-ZJzbY1mfK_uoJlT-30" target="pBv2-ZJzbY1mfK_uoJlT-19">
          <mxGeometry relative="1" as="geometry" />
        </mxCell>
        <mxCell id="pBv2-ZJzbY1mfK_uoJlT-30" value="Do you want it hot?" style="strokeWidth=2;html=1;shape=mxgraph.flowchart.decision;whiteSpace=wrap;" vertex="1" parent="1">
          <mxGeometry x="98" y="295" width="100" height="100" as="geometry" />
        </mxCell>
        <mxCell id="pBv2-ZJzbY1mfK_uoJlT-31" style="edgeStyle=orthogonalEdgeStyle;rounded=0;orthogonalLoop=1;jettySize=auto;html=1;exitX=0;exitY=0.5;exitDx=0;exitDy=0;exitPerimeter=0;entryX=1;entryY=0.5;entryDx=0;entryDy=0;entryPerimeter=0;" edge="1" parent="1" source="pBv2-ZJzbY1mfK_uoJlT-8" target="pBv2-ZJzbY1mfK_uoJlT-29">
          <mxGeometry relative="1" as="geometry" />
        </mxCell>
        <mxCell id="pBv2-ZJzbY1mfK_uoJlT-32" style="edgeStyle=orthogonalEdgeStyle;rounded=0;orthogonalLoop=1;jettySize=auto;html=1;exitX=0;exitY=0.5;exitDx=0;exitDy=0;exitPerimeter=0;entryX=1;entryY=0.5;entryDx=0;entryDy=0;entryPerimeter=0;" edge="1" parent="1" source="pBv2-ZJzbY1mfK_uoJlT-29" target="pBv2-ZJzbY1mfK_uoJlT-30">
          <mxGeometry relative="1" as="geometry">
            <mxPoint x="210" y="310" as="targetPoint" />
          </mxGeometry>
        </mxCell>
        <mxCell id="pBv2-ZJzbY1mfK_uoJlT-35" value="Yes" style="text;html=1;align=center;verticalAlign=middle;whiteSpace=wrap;rounded=0;" vertex="1" parent="1">
          <mxGeometry x="138" y="395" width="60" height="30" as="geometry" />
        </mxCell>
        <mxCell id="pBv2-ZJzbY1mfK_uoJlT-36" value="No" style="text;html=1;align=center;verticalAlign=middle;whiteSpace=wrap;rounded=0;" vertex="1" parent="1">
          <mxGeometry x="48" y="314" width="60" height="30" as="geometry" />
        </mxCell>
        <mxCell id="pBv2-ZJzbY1mfK_uoJlT-37" style="edgeStyle=orthogonalEdgeStyle;rounded=0;orthogonalLoop=1;jettySize=auto;html=1;exitX=0.5;exitY=1;exitDx=0;exitDy=0;entryX=0;entryY=0.5;entryDx=0;entryDy=0;entryPerimeter=0;" edge="1" parent="1" source="pBv2-ZJzbY1mfK_uoJlT-19" target="pBv2-ZJzbY1mfK_uoJlT-9">
          <mxGeometry relative="1" as="geometry" />
        </mxCell>
        <mxCell id="pBv2-ZJzbY1mfK_uoJlT-39" value="Yes" style="text;html=1;align=center;verticalAlign=middle;whiteSpace=wrap;rounded=0;" vertex="1" parent="1">
          <mxGeometry x="196" y="314" width="60" height="30" as="geometry" />
        </mxCell>
        <mxCell id="pBv2-ZJzbY1mfK_uoJlT-40" value="No" style="text;html=1;align=center;verticalAlign=middle;whiteSpace=wrap;rounded=0;" vertex="1" parent="1">
          <mxGeometry x="280" y="386.5" width="60" height="30" as="geometry" />
        </mxCell>
        <mxCell id="pBv2-ZJzbY1mfK_uoJlT-42" value="Yes" style="text;html=1;align=center;verticalAlign=middle;whiteSpace=wrap;rounded=0;" vertex="1" parent="1">
          <mxGeometry x="330" y="314" width="60" height="30" as="geometry" />
        </mxCell>
        <mxCell id="pBv2-ZJzbY1mfK_uoJlT-44" style="edgeStyle=orthogonalEdgeStyle;rounded=0;orthogonalLoop=1;jettySize=auto;html=1;exitX=1;exitY=0.5;exitDx=0;exitDy=0;exitPerimeter=0;entryX=0;entryY=0.5;entryDx=0;entryDy=0;" edge="1" parent="1" source="pBv2-ZJzbY1mfK_uoJlT-43" target="pBv2-ZJzbY1mfK_uoJlT-20">
          <mxGeometry relative="1" as="geometry" />
        </mxCell>
        <mxCell id="pBv2-ZJzbY1mfK_uoJlT-46" style="edgeStyle=orthogonalEdgeStyle;rounded=0;orthogonalLoop=1;jettySize=auto;html=1;exitX=0.5;exitY=1;exitDx=0;exitDy=0;exitPerimeter=0;entryX=0.5;entryY=0;entryDx=0;entryDy=0;" edge="1" parent="1" source="pBv2-ZJzbY1mfK_uoJlT-43" target="pBv2-ZJzbY1mfK_uoJlT-21">
          <mxGeometry relative="1" as="geometry" />
        </mxCell>
        <mxCell id="pBv2-ZJzbY1mfK_uoJlT-43" value="&lt;div&gt;Are you allergic&lt;/div&gt;&lt;div&gt;&amp;nbsp;to peanuts?&lt;/div&gt;" style="strokeWidth=2;html=1;shape=mxgraph.flowchart.decision;whiteSpace=wrap;" vertex="1" parent="1">
          <mxGeometry x="240" y="416.5" width="100" height="105" as="geometry" />
        </mxCell>
        <mxCell id="pBv2-ZJzbY1mfK_uoJlT-45" style="edgeStyle=orthogonalEdgeStyle;rounded=0;orthogonalLoop=1;jettySize=auto;html=1;exitX=0.5;exitY=1;exitDx=0;exitDy=0;exitPerimeter=0;entryX=0.5;entryY=0;entryDx=0;entryDy=0;entryPerimeter=0;" edge="1" parent="1" source="pBv2-ZJzbY1mfK_uoJlT-29" target="pBv2-ZJzbY1mfK_uoJlT-43">
          <mxGeometry relative="1" as="geometry" />
        </mxCell>
        <mxCell id="pBv2-ZJzbY1mfK_uoJlT-47" style="edgeStyle=orthogonalEdgeStyle;rounded=0;orthogonalLoop=1;jettySize=auto;html=1;entryX=0;entryY=0.5;entryDx=0;entryDy=0;entryPerimeter=0;" edge="1" parent="1" source="pBv2-ZJzbY1mfK_uoJlT-21" target="pBv2-ZJzbY1mfK_uoJlT-9">
          <mxGeometry relative="1" as="geometry">
            <Array as="points">
              <mxPoint x="290" y="680" />
            </Array>
          </mxGeometry>
        </mxCell>
        <mxCell id="pBv2-ZJzbY1mfK_uoJlT-49" value="Yes" style="text;html=1;align=center;verticalAlign=middle;whiteSpace=wrap;rounded=0;" vertex="1" parent="1">
          <mxGeometry x="315" y="439" width="60" height="30" as="geometry" />
        </mxCell>
        <mxCell id="pBv2-ZJzbY1mfK_uoJlT-50" value="No" style="text;html=1;align=center;verticalAlign=middle;whiteSpace=wrap;rounded=0;" vertex="1" parent="1">
          <mxGeometry x="280" y="520" width="60" height="30" as="geometry" />
        </mxCell>
      </root>
    </mxGraphModel>
  </diagram>
</mxfile>
